<svg width="620" height="240" viewBox="0 0 620 240" fill="none" xmlns="http://www.w3.org/2000/svg">
  <rect width="620" height="240" rx="18" fill="#111318"/>
  <path d="M55 185C88 116 136 83 199 86C282 90 307 148 381 145C436 143 476 106 565 54" stroke="#20C997" stroke-width="10" stroke-linecap="round"/>
  <path d="M55 185C88 116 136 83 199 86C282 90 307 148 381 145C436 143 476 106 565 54" stroke="#F4F1E8" stroke-width="2" stroke-dasharray="9 14" stroke-linecap="round"/>
  <circle cx="55" cy="185" r="21" fill="#FFD166"/>
  <circle cx="55" cy="185" r="8" fill="#101114"/>
  <circle cx="565" cy="54" r="24" fill="#66A6FF"/>
  <path d="M554 53L563 63L579 42" stroke="#101114" stroke-width="8" stroke-linecap="round" stroke-linejoin="round"/>
  <rect x="154" y="36" width="76" height="46" rx="8" fill="#20232A" stroke="#343946" stroke-width="3"/>
  <path d="M174 55H210M174 67H198" stroke="#A9ADBA" stroke-width="5" stroke-linecap="round"/>
  <rect x="383" y="154" width="80" height="48" rx="8" fill="#20232A" stroke="#343946" stroke-width="3"/>
  <path d="M403 174H443M403 187H432" stroke="#A9ADBA" stroke-width="5" stroke-linecap="round"/>
  <path d="M285 55L303 37L321 55L303 73L285 55Z" fill="#FF6B6B"/>
  <path d="M296 55H310" stroke="#101114" stroke-width="5" stroke-linecap="round"/>
</svg>
